<svg xmlns="http://www.w3.org/2000/svg" width="24" height="24" viewBox="0 0 24 24">
  <g id="Group_46092" data-name="Group 46092" transform="translate(0 24) rotate(-90)">
    <rect id="Rectangle_18" data-name="Rectangle 18" width="24" height="24" transform="translate(0)" fill="none"/>
    <path id="Path_43" data-name="Path 43" d="M8.273,0a.8.8,0,0,0-.559.22L.838,6.74a2.641,2.641,0,0,0,0,3.86l6.876,6.52a.827.827,0,0,0,1.118,0,.727.727,0,0,0,0-1.06L1.956,9.54a1.187,1.187,0,0,1,0-1.74L8.832,1.28a.727.727,0,0,0,0-1.06A.852.852,0,0,0,8.273,0Z" transform="translate(7 3.663)"/>
  </g>
</svg>
