<svg xmlns="http://www.w3.org/2000/svg" width="24" height="24" viewBox="0 0 24 24">
  <g id="Group_46091" data-name="Group 46091" transform="translate(93 -22) rotate(90)">
    <rect id="Rectangle_18" data-name="Rectangle 18" width="24" height="24" transform="translate(22 69)" fill="none"/>
    <path id="Path_43" data-name="Path 43" d="M15.818,20.67a.8.8,0,0,1-.559-.22L8.384,13.93a2.641,2.641,0,0,1,0-3.86l6.876-6.52a.827.827,0,0,1,1.118,0,.727.727,0,0,1,0,1.06L9.5,11.13a1.187,1.187,0,0,0,0,1.74l6.876,6.52a.727.727,0,0,1,0,1.06A.852.852,0,0,1,15.818,20.67Z" transform="translate(21.455 68.667)" fill="#fff"/>
  </g>
</svg>
