<svg xmlns="http://www.w3.org/2000/svg" width="152" height="213.184" viewBox="0 0 152 213.184">
  <g id="Group_56798" data-name="Group 56798" transform="translate(-127 -260.114)">
    <path id="Path_87" data-name="Path 87" d="M58.052,79c-.519,2.932-.935,4.105-4.052,5.161,2.885.762,3.276,2.215,4.052,4.926.688-2.517,1.682-3.916,3.948-4.926C59.136,83.032,58.675,81.815,58.052,79Z" transform="translate(105.869 277.912)" fill="#1e1e1e"/>
    <path id="Path_88" data-name="Path 88" d="M163.039,95c-.39,2.2-.7,3.079-3.039,3.871,2.164.571,2.457,1.661,3.039,3.694A4.888,4.888,0,0,1,166,98.871C163.852,98.024,163.506,97.111,163.039,95Z" transform="translate(97 288)" fill="#1e1e1e"/>
    <path id="Path_89" data-name="Path 89" d="M118.039,0c-.39,2.2-.7,3.079-3.039,3.871,2.164.571,2.457,1.662,3.039,3.695A4.887,4.887,0,0,1,121,3.871C118.852,3.024,118.506,2.111,118.039,0Z" transform="translate(72.5 465.069)" fill="#1e1e1e"/>
    <path id="Path_90" data-name="Path 90" d="M3.039,26c-.39,2.2-.7,3.079-3.039,3.871,2.164.571,2.457,1.662,3.039,3.695A4.888,4.888,0,0,1,6,29.871C3.852,29.024,3.506,28.111,3.039,26Z" transform="translate(127 241)" fill="#1e1e1e"/>
    <path id="Path_91" data-name="Path 91" d="M47.039,110c-.39,2.2-.7,3.079-3.039,3.871,2.164.571,2.457,1.661,3.039,3.694A4.886,4.886,0,0,1,50,113.871C47.852,113.024,47.507,112.111,47.039,110Z" transform="translate(100 303)" fill="#1e1e1e"/>
    <path id="Path_92" data-name="Path 92" d="M180.026,47c-.26,1.466-.468,2.053-2.026,2.58,1.442.381,1.638,1.108,2.026,2.463A3.259,3.259,0,0,1,182,49.58C180.568,49.016,180.338,48.408,180.026,47Z" transform="translate(97 288)" fill="#1e1e1e"/>
    <g id="Group_56656" data-name="Group 56656" transform="translate(-769.047 5031.229)">
      <path id="Path_46088" data-name="Path 46088" d="M573.191,575.275q-.249-.09-.5-.189c-6.106-2.409-10.765-5.067-13.587-11.381-3.04-6.8-2.888-14.577-2.126-21.99.356-3.46.786-7.171-.87-10.229-1.232-2.276-3.47-3.864-4.771-6.1s-1.061-5.831,1.41-6.6c2.313-.718,5.158,1.508,7.057,0a8.694,8.694,0,0,0,1.54-2.364c2.06-3.208,6.99-2.63,10.34-.809s6.512,4.564,10.324,4.568c4.458,0,9.023-3.78,12.95-1.67,3.1,1.667,3.717,6.155,6.738,7.966,1.089.653,2.441.917,3.3,1.85A4.931,4.931,0,0,1,606.06,531c1.037,6.9-2.112,12.927-4.812,18.937-1.181,2.63-1.992,5.366-2.925,8.068" transform="translate(402.294 -5284)" fill="none" stroke="#2b2a2a" stroke-width="2.5"/>
      <path id="Path_46089" data-name="Path 46089" d="M530.55,595.914a20.976,20.976,0,0,0-7.966-6.8,11.444,11.444,0,0,0-5.411-1.333c-2.635.114-5.013,1.529-7.264,2.9-2.992,1.827-6.321,4.182-6.555,7.68-.086,1.291.259,2.7-.408,3.807a12.669,12.669,0,0,1-1.7,1.72c-1.349,1.5-1.278,3.75-1.128,5.759l.485,6.488a6.2,6.2,0,0,0,1.109,3.728A4.572,4.572,0,0,0,505.935,621c1.5-.256,2.9-.917,4.373-1.292,5.888-1.5,11.943,1.68,17.9,2.972" transform="translate(428.872 -5322.749)" fill="none" stroke="#2b2a2a" stroke-width="2.5"/>
      <path id="Path_46090" data-name="Path 46090" d="M650.861,550.36a30.6,30.6,0,0,1,9.083-3,6.621,6.621,0,0,1,4.193.032c2.672,1.271.312,8.641-.246,10.918-.753,3.076-2.107,5.967-3.135,8.962-2.114,6.161-2.865,12.808-5.782,18.632s-9.018,10.861-15.419,9.656a11.793,11.793,0,0,1-4.064-1.629" transform="translate(357.611 -5301.307)" fill="none" stroke="#2b2a2a" stroke-width="2.5"/>
      <path id="Path_46091" data-name="Path 46091" d="M686.239,575.4a10.472,10.472,0,0,1,7.256-2.374c3.724.35,6.7,3.127,9.363,5.753L709,584.836c1.206,1.189,2.471,2.484,2.791,4.146a6.265,6.265,0,0,1-1.819,5.142c-3.355,3.767-8.689,4.874-13.217,7.1-4.09,2.007-7.6,4.993-11.412,7.494a33.191,33.191,0,0,1-5.308,2.9" transform="translate(334.174 -5314.962)" fill="none" stroke="#2b2a2a" stroke-width="2.5"/>
      <path id="Path_46092" data-name="Path 46092" d="M526.323,572.163c-.059-3.942,1.507-8.114,4.976-9.891,1.03-.528,2.172-.818,3.188-1.373,2.013-1.1,3.358-3.133,5.286-4.375a8.027,8.027,0,0,1,4.156-1.243" transform="translate(415.047 -5305.647)" fill="none" stroke="#2b2a2a" stroke-width="2.5"/>
      <path id="Path_46093" data-name="Path 46093" d="M651.574,531.249a17.861,17.861,0,0,1,4.591-.6,8.476,8.476,0,0,1,3.783.732c.968.482,1.774,1.237,2.706,1.786,2.229,1.311,5.253,1.516,6.728,3.64a4.628,4.628,0,0,1,.7,1.641" transform="translate(349.15 -5292.686)" fill="none" stroke="#2b2a2a" stroke-width="2.5"/>
      <path id="Path_46094" data-name="Path 46094" d="M603.93,621.91a7.723,7.723,0,0,1,.745-1.547,18.7,18.7,0,0,1,3.785-4c6.682-5.711,14.3-10.914,23-12.142l-4.108,3.138c-2.542,1.942-5.187,4.011-6.466,6.943-1.743,3.994-.559,9.433-3.758,12.767-2.338,2.437-8.779,4.274-11.661,2.269a4.405,4.405,0,0,1-1.213-1.27" transform="translate(374.216 -5331.397)" fill="none" stroke="#2b2a2a" stroke-width="2.5"/>
      <path id="Path_46095" data-name="Path 46095" d="M558,644.622c-5.87,1.936-10.674,6.64-16.749,7.778-1.787.335-3.629.22-5.4.725-.613.175-1.82.516-1.506,1.427.359,1.042,3.245.876,4.086.913a25.735,25.735,0,0,0,7.433-.953c3.957-1.009,7.855-2.461,11.935-2.639a20.729,20.729,0,0,1-2.949,11.1c-1.824,3.027-4.387,5.526-6.587,8.292s-4.1,5.995-4.213,9.527c1.542.137,2.236-1.807,2.9-3.205,1.943-4.089,7.066-5.534,10.036-8.951,2.254-2.593,3.078-6.083,4.255-9.31a55.3,55.3,0,0,1,4.783-9.646c1.476-2.435,4.74-5.689,5.226-8.409C567.506,640.067,561.515,643.464,558,644.622Z" transform="translate(410.851 -5350.753)" fill="none" stroke="#2b2a2a" stroke-width="2.5"/>
      <path id="Path_46096" data-name="Path 46096" d="M625.518,654.205c2.223,5.918,18.077,4.652,22.929,6.406a20.226,20.226,0,0,0,5.084,1.584c2.686.219,5.214-1.158,7.556-2.491,2.094-1.192,4.378-2.623,4.976-4.957-7.488,2.118-15.3-3.228-23.014-2.188-4.2.566-8.344,2.864-12.456.764-.514-.263-1.237-.733-1.986-1.165" transform="translate(362.858 -5356.616)" fill="none" stroke="#2b2a2a" stroke-width="2.5"/>
      <path id="Path_46097" data-name="Path 46097" d="M601.326,656.615c-.337,1.712-.621,3.434-.867,5.161-.345,2.422-1.2,4.8.555,6.9,1.841,2.21,6.436,1.885,7.97-.58,2.2-3.53,2.148-7.825,3.237-11.741" transform="translate(376.311 -5358.823)" fill="none" stroke="#2b2a2a" stroke-width="2.5"/>
      <path id="Path_46098" data-name="Path 46098" d="M623.058,667.944a6.321,6.321,0,0,0,1.626.9c1.711.643,3.6.772,5.242,1.577,3.884,1.9,5.1,6.759,7.76,10.172a13.727,13.727,0,0,0,10.944,5.2,44.161,44.161,0,0,1-8.511-10.779,39.41,39.41,0,0,0-2.177-3.7,27.267,27.267,0,0,0-4.917-4.862l-.985-.821" transform="translate(364.153 -5363.708)" fill="none" stroke="#2b2a2a" stroke-width="2.5"/>
      <path id="Path_46099" data-name="Path 46099" d="M561.673,684.813c-5.884,46.729-17.592,89.877-42.96,130.389" transform="translate(419.05 -5373.796)" fill="none" stroke="#2b2a2a" stroke-width="2.5"/>
    </g>
  </g>
</svg>
